<?xml version="1.0" standalone="no"?>
<!DOCTYPE svg PUBLIC "-//W3C//DTD SVG 20010904//EN"
 "http://www.w3.org/TR/2001/REC-SVG-20010904/DTD/svg10.dtd">
<svg
  version="1.0"
  xmlns="http://www.w3.org/2000/svg"
  width="500.000000pt"
  height="500.000000pt"
  viewBox="0 0 500.000000 500.000000"
  preserveAspectRatio="xMidYMid meet"
  fill="#DCE775"
  className='dark:fill-lime-300'
>

<g transform="translate(0.000000,500.000000) scale(0.100000,-0.100000)"
fill="#DCE775" stroke="none">
<path d="M0 2500 l0 -2500 2500 0 2500 0 0 2500 0 2500 -2500 0 -2500 0 0
-2500z m4184 1860 c14 -5 26 -16 26 -25 0 -8 5 -15 11 -15 5 0 8 4 5 9 -3 4 6
6 19 3 14 -2 31 1 39 7 11 9 16 9 21 1 4 -7 27 -20 51 -30 34 -15 44 -25 44
-42 0 -13 9 -31 20 -41 11 -9 20 -24 20 -32 0 -10 5 -13 12 -9 6 4 8 3 5 -4
-12 -18 4 -44 24 -39 11 3 16 1 13 -4 -3 -6 1 -25 10 -44 18 -38 13 -80 -12
-94 -14 -8 -14 -11 -1 -23 8 -8 21 -13 29 -11 11 3 10 1 -2 -7 -13 -8 -15 -19
-11 -47 5 -28 3 -34 -7 -28 -10 6 -12 4 -7 -8 4 -12 1 -17 -10 -17 -14 0 -13
-3 4 -22 23 -24 17 -37 -21 -51 -24 -10 -16 -17 24 -22 60 -8 78 -40 33 -56
-16 -5 -38 -24 -49 -43 l-22 -33 24 -46 c13 -27 19 -49 13 -52 -5 -4 -6 -11
-3 -17 5 -8 1 -9 -10 -5 -23 9 -47 -40 -26 -53 11 -7 10 -11 -3 -25 -20 -19
-20 -21 -7 -44 7 -14 4 -24 -11 -42 -14 -17 -16 -24 -7 -30 16 -10 19 -141 4
-152 -8 -6 -7 -10 2 -14 10 -4 9 -9 -4 -24 -16 -18 -16 -20 2 -40 15 -17 16
-23 5 -27 -11 -4 -11 -6 0 -13 11 -7 11 -11 2 -17 -6 -4 -14 -20 -17 -35 -3
-20 -1 -27 11 -27 11 0 13 -4 5 -12 -5 -7 -8 -25 -6 -41 1 -17 -1 -25 -8 -21
-6 4 -5 -2 1 -15 7 -12 9 -25 6 -30 -3 -5 1 -12 7 -14 10 -4 10 -8 -1 -15 -12
-9 -12 -13 2 -26 12 -13 14 -23 7 -41 -5 -14 -7 -25 -4 -25 4 0 0 -7 -7 -17
-11 -13 -11 -17 -1 -20 6 -3 12 -9 12 -14 0 -6 -4 -7 -10 -4 -5 3 -10 1 -10
-4 0 -6 8 -11 18 -11 14 0 13 -4 -7 -19 -18 -14 -21 -22 -14 -35 5 -10 6 -38
2 -64 -4 -26 -3 -51 2 -56 5 -6 3 -16 -6 -26 -16 -17 -9 -64 8 -53 6 4 7 1 1
-8 -13 -22 -13 -92 2 -115 15 -25 8 -67 -10 -57 -6 3 -2 -3 8 -15 15 -17 17
-27 9 -45 -6 -12 -7 -29 -3 -37 20 -41 26 -77 17 -97 -5 -12 -6 -34 -2 -50 4
-15 8 -58 9 -96 0 -47 4 -66 13 -63 8 4 8 -4 -2 -28 -8 -18 -12 -45 -10 -62 1
-16 -1 -37 -6 -46 -7 -12 -5 -26 3 -40 7 -13 11 -27 10 -31 -9 -30 -8 -74 1
-95 9 -20 8 -27 -7 -38 -10 -7 -16 -19 -13 -27 3 -8 2 -18 -3 -23 -5 -5 1 -30
14 -57 13 -26 20 -47 16 -47 -4 0 -11 -7 -14 -16 -4 -9 -2 -13 5 -8 7 4 9 0 6
-12 -16 -59 -16 -73 -1 -88 8 -9 12 -16 7 -16 -5 0 -9 -8 -10 -17 -4 -41 -11
-88 -13 -88 -2 0 -4 -27 -5 -60 -2 -64 -19 -109 -38 -102 -8 3 -13 -13 -15
-49 l-2 -54 227 -2 228 -3 3 -324 c2 -253 -1 -326 -10 -333 -22 -13 -532 -10
-546 4 -9 9 -12 93 -12 314 0 189 -4 305 -10 309 -5 3 -28 7 -50 8 -27 1 -40
6 -40 15 0 8 -6 12 -15 8 -8 -3 -14 -2 -12 2 1 4 -6 18 -15 31 -15 21 -19 22
-34 10 -15 -12 -16 -12 -10 9 6 16 3 22 -8 22 -9 0 -16 -8 -16 -19 0 -10 -6
-21 -13 -24 -10 -4 -13 3 -12 24 1 17 -2 32 -7 35 -4 3 -6 10 -3 15 4 5 1 9
-4 9 -6 0 -11 -4 -11 -10 0 -23 -33 -3 -94 56 -24 23 -37 29 -48 23 -12 -7
-17 -2 -21 21 -5 21 -11 28 -21 24 -10 -4 -17 2 -22 20 -3 14 -15 28 -26 31
-10 4 -24 19 -29 33 -26 70 -34 82 -51 76 -14 -4 -16 1 -12 29 3 24 -1 37 -11
41 -13 4 -13 10 0 47 8 22 12 45 9 50 -3 5 0 9 5 9 20 0 26 -5 24 -20 -2 -10
0 -10 3 -2 9 20 51 14 57 -9 5 -18 8 -19 29 -8 33 18 85 20 98 3 10 -11 14
-11 27 1 11 11 19 12 34 5 13 -8 19 -7 19 0 0 6 4 9 9 6 5 -4 11 -1 13 5 2 6
16 12 30 12 24 -1 28 4 34 43 7 50 18 61 40 43 22 -18 28 -4 9 25 -9 14 -14
30 -11 35 4 5 1 13 -5 16 -5 4 -8 14 -5 22 3 8 0 24 -8 36 -9 14 -13 50 -12
100 0 43 -3 78 -9 80 -6 2 -5 10 3 19 8 10 9 19 3 22 -6 4 -6 19 1 42 5 20 7
43 3 52 -10 28 -16 145 -7 151 14 9 23 59 12 66 -14 9 -12 21 5 38 12 13 12
17 -5 32 -14 13 -20 14 -20 5 0 -10 -4 -9 -17 3 -17 14 -18 14 -20 -10 -1 -30
-26 -51 -31 -26 -2 8 2 20 10 24 11 7 10 11 -2 19 -11 7 -18 5 -27 -6 -7 -9
-17 -13 -24 -8 -8 5 -11 2 -6 -8 3 -9 0 -21 -6 -27 -9 -9 -9 -14 2 -20 17 -11
4 -34 -14 -27 -8 3 -17 -4 -20 -15 -5 -15 -13 -19 -27 -16 -11 3 -18 3 -15 0
5 -5 -18 -36 -60 -80 -12 -13 -31 -23 -43 -23 -11 0 -20 -5 -20 -11 0 -16 -68
-79 -85 -79 -8 0 -19 -8 -24 -19 -6 -10 -24 -24 -40 -31 -21 -8 -28 -17 -24
-28 5 -13 1 -12 -18 4 -18 16 -30 20 -46 14 -27 -11 -42 6 -48 54 -4 31 -1 38
20 48 22 10 29 26 28 65 -1 7 3 13 9 13 5 0 7 4 4 8 -3 5 3 14 14 22 10 7 16
19 13 25 -2 7 7 24 21 38 31 32 78 112 69 121 -3 3 2 15 11 25 10 11 15 24 12
29 -3 5 3 20 14 32 11 12 17 26 15 31 -3 4 -1 10 4 13 16 10 -30 94 -49 89 -9
-2 -22 2 -29 10 -6 8 -21 13 -31 10 -14 -4 -20 0 -20 11 0 9 -5 16 -11 16 -5
0 -8 4 -5 9 7 10 -69 53 -78 44 -3 -4 -6 3 -6 14 0 12 -6 23 -14 26 -8 3 -17
19 -21 36 -4 17 -11 33 -16 36 -5 4 -9 17 -9 30 0 18 -4 23 -15 19 -10 -4 -15
0 -15 14 0 12 -4 24 -10 27 -15 9 -12 25 4 19 8 -3 17 1 22 8 4 7 4 10 -1 6
-4 -4 -17 -2 -28 3 -11 6 -15 14 -10 18 17 10 25 49 12 56 -8 6 -8 10 2 15 10
7 10 12 0 23 -9 12 -9 16 1 19 7 3 14 24 16 49 6 101 15 165 24 177 7 8 7 12
-1 12 -6 0 -11 12 -11 28 0 15 -4 33 -9 40 -13 22 -1 62 19 62 10 0 21 8 25
18 15 46 110 75 142 44 16 -16 16 -16 10 1 -7 18 7 24 18 7 3 -5 12 -7 19 -4
7 3 18 -2 25 -10 7 -8 19 -12 27 -9 10 3 12 0 8 -10 -4 -12 -1 -14 14 -10 21
5 75 -44 66 -59 -3 -5 0 -15 6 -23 6 -8 10 -29 9 -48 -2 -20 3 -43 11 -53 14
-16 13 -17 -4 -11 -15 6 -17 5 -8 -6 9 -10 8 -17 -1 -26 -9 -10 -8 -11 8 -6
18 6 18 5 2 -5 -13 -9 -16 -20 -12 -51 4 -34 2 -42 -14 -46 -17 -4 -18 -8 -8
-25 10 -16 9 -22 -7 -34 -11 -8 -15 -14 -9 -14 6 0 17 -17 24 -37 7 -21 21
-45 31 -55 14 -12 15 -17 6 -20 -7 -3 -19 2 -26 11 -8 9 -11 10 -7 4 7 -15
-26 -5 -38 11 -4 6 -6 -4 -3 -23 3 -19 11 -38 18 -43 9 -7 10 -11 2 -14 -11
-4 39 -64 53 -64 3 0 12 -8 20 -17 8 -10 12 -12 8 -5 -3 6 -2 12 3 12 6 0 12
-6 15 -14 7 -17 47 -10 48 8 0 6 4 1 9 -11 7 -17 18 -23 39 -23 16 0 59 -16
95 -35 36 -19 68 -31 70 -26 3 5 -1 14 -9 21 -8 7 -12 16 -9 21 3 5 2 15 -3
22 -10 16 -11 30 -2 42 5 6 6 35 4 65 -2 29 0 60 5 69 13 26 19 80 9 87 -6 3
-7 14 -4 25 4 10 4 23 0 29 -3 5 -7 81 -9 168 -1 87 -6 164 -10 170 -4 7 -2
12 3 12 13 0 15 47 2 54 -13 8 -4 78 10 87 8 4 15 31 16 61 2 29 5 80 8 113 7
77 7 63 2 186 -2 58 -7 111 -12 118 -4 8 -2 17 6 21 10 7 5 17 -20 42 -26 27
-34 30 -41 18 -7 -11 -10 -11 -10 -2 0 7 7 15 15 18 8 4 15 11 15 16 0 6 -7 8
-15 4 -12 -4 -13 -2 -5 13 8 15 6 20 -10 24 -16 4 -20 0 -20 -19 0 -13 -4 -24
-10 -24 -5 0 -10 -7 -10 -15 0 -8 -4 -15 -10 -15 -5 0 -10 -7 -10 -16 0 -18
-27 -48 -33 -37 -3 5 -8 34 -11 66 -4 31 -11 57 -15 57 -4 0 -16 -9 -26 -20
-10 -11 -29 -20 -42 -20 -12 0 -23 -5 -23 -11 0 -5 5 -7 12 -3 7 4 8 3 4 -4
-5 -9 -13 -9 -26 -2 -24 13 -33 13 -24 -1 4 -7 0 -9 -14 -5 -11 4 -26 1 -33
-6 -8 -7 -23 -14 -34 -16 -35 -5 -46 -12 -40 -22 3 -5 -1 -10 -9 -10 -8 0 -22
-7 -30 -16 -9 -8 -16 -11 -16 -6 0 16 -39 21 -51 6 -6 -8 -18 -14 -26 -14 -7
0 -16 -7 -19 -15 -4 -9 -19 -15 -41 -15 -20 0 -32 -4 -28 -10 4 -6 -8 -10 -29
-10 -24 0 -35 -4 -33 -12 1 -7 -6 -12 -15 -10 -12 2 -20 -6 -24 -22 -4 -19
-15 -27 -40 -32 -19 -3 -34 -10 -34 -15 0 -5 -7 -6 -15 -3 -8 4 -15 2 -16 -2
-2 -30 -9 -73 -15 -94 -11 -37 -11 -44 -2 -56 5 -7 8 -16 6 -20 -1 -5 3 -19
10 -30 17 -32 24 -102 11 -125 -7 -15 -7 -24 1 -34 8 -9 8 -15 0 -20 -7 -4 -5
-11 5 -21 17 -17 20 -34 6 -34 -5 0 -12 -7 -15 -16 -5 -12 -1 -14 17 -8 l22 6
-23 -20 c-13 -11 -19 -23 -13 -26 5 -3 7 -15 4 -25 -3 -10 0 -22 6 -25 13 -9
14 -46 1 -66 -5 -8 -12 -11 -17 -7 -4 5 -1 13 7 18 13 9 13 10 0 6 -8 -2 -14
-13 -12 -23 2 -10 3 -29 3 -41 -1 -25 14 -31 22 -10 4 7 6 8 6 1 1 -6 -6 -17
-14 -24 -9 -7 -15 -8 -15 -2 0 5 -9 8 -21 5 -16 -4 -17 -8 -7 -14 7 -5 14 -21
15 -36 2 -15 3 -32 3 -38 1 -5 1 -19 0 -30 -4 -77 5 -166 16 -176 8 -6 14 -16
14 -21 0 -6 -6 -6 -14 1 -12 10 -16 8 -21 -10 -5 -16 -2 -26 11 -36 9 -7 14
-16 10 -20 -4 -4 -11 -1 -16 7 -10 17 -15 13 -24 -17 -5 -14 -3 -23 3 -23 7 0
7 -8 1 -25 -5 -14 -7 -25 -4 -25 4 0 1 -6 -5 -14 -9 -10 -8 -16 4 -26 13 -11
13 -15 3 -22 -10 -8 -10 -11 0 -15 6 -2 12 -9 12 -14 0 -6 -4 -8 -8 -5 -5 3
-9 -9 -9 -27 0 -67 -7 -103 -22 -121 -15 -18 -15 -19 1 -13 9 3 18 3 21 0 8
-7 -16 -32 -25 -27 -11 7 -1 -55 11 -69 7 -9 4 -25 -8 -53 -13 -28 -16 -46 -9
-58 5 -9 7 -25 3 -35 -3 -11 -1 -22 4 -26 7 -3 7 -14 1 -29 -5 -13 -6 -26 -3
-29 3 -3 1 -12 -3 -19 -10 -17 -11 -47 -2 -76 5 -13 3 -22 -3 -22 -6 0 -7 -4
-4 -10 3 -5 2 -10 -4 -10 -6 0 -8 -7 -5 -15 4 -8 1 -15 -6 -15 -6 0 -8 -5 -3
-12 10 -18 11 -88 1 -88 -5 0 -5 -8 1 -17 6 -11 6 -24 0 -35 -6 -10 -7 -23 -4
-28 3 -6 2 -10 -4 -10 -17 0 -23 -40 -9 -57 9 -12 9 -15 0 -9 -11 7 -33 -28
-37 -59 0 -5 -7 -9 -15 -7 -11 3 -11 0 0 -13 11 -13 10 -18 -5 -29 -15 -11
-17 -22 -12 -69 3 -31 1 -59 -4 -62 -5 -4 -5 -13 0 -24 7 -12 6 -24 -4 -38 -8
-11 -11 -23 -8 -27 3 -3 1 -6 -5 -6 -7 0 -12 -7 -12 -16 0 -13 -3 -14 -14 -5
-10 9 -15 8 -20 -4 -3 -9 0 -15 9 -15 7 0 17 -4 20 -10 3 -6 -1 -7 -9 -4 -12
5 -16 -1 -16 -25 0 -17 -4 -31 -10 -31 -5 0 -10 -9 -10 -20 0 -11 7 -20 15
-20 8 0 15 -4 15 -10 0 -5 -4 -10 -10 -10 -5 0 -6 -8 -3 -17 7 -17 6 -17 -20
0 -24 15 -26 16 -20 0 5 -12 3 -14 -7 -8 -8 5 -3 -7 10 -25 19 -26 20 -32 7
-27 -14 5 -18 -1 -23 -33 -4 -22 -11 -40 -16 -40 -5 0 -7 -4 -4 -9 3 -5 -1
-14 -10 -21 -8 -7 -13 -19 -10 -26 7 -19 -32 -54 -61 -54 -20 0 -23 -3 -14
-14 9 -10 8 -16 -4 -26 -9 -7 -14 -19 -11 -26 3 -8 0 -11 -8 -8 -8 3 -17 1
-20 -5 -5 -7 -15 -7 -33 0 -19 7 -28 6 -33 -2 -5 -8 -13 -8 -27 1 -14 9 -25
10 -38 3 -21 -12 -75 13 -75 35 0 6 -9 12 -19 12 -24 0 -36 15 -40 51 0 6 -10
8 -21 4 -15 -5 -18 -3 -14 9 5 12 2 15 -11 10 -14 -6 -16 -3 -10 17 4 13 11
28 16 34 5 5 9 17 9 27 0 10 5 18 11 18 5 0 7 6 3 13 -6 9 -4 9 8 -1 10 -8 18
-9 22 -3 4 6 13 8 20 5 9 -3 18 6 25 27 7 21 15 29 26 25 20 -7 86 61 78 82
-5 11 -2 14 10 9 11 -4 14 -2 10 9 -3 7 0 14 7 14 9 0 9 4 -1 17 -12 15 -12
16 4 10 15 -5 17 0 17 38 0 25 4 45 9 45 13 0 43 83 40 106 -2 11 3 36 10 57
7 21 11 49 8 62 -2 14 -1 22 3 20 10 -6 19 28 16 65 -1 16 1 30 6 30 4 0 8 7
8 16 0 8 5 12 10 9 5 -3 10 -3 10 2 0 4 3 42 5 83 3 41 7 103 9 137 3 35 9 78
14 95 5 18 10 50 10 71 0 21 4 43 10 50 5 7 6 21 1 32 -11 28 -11 37 1 30 6
-3 11 5 11 19 1 26 5 44 9 49 1 1 3 13 4 25 2 13 8 27 15 32 9 5 10 10 3 14
-6 4 -8 18 -3 34 3 15 6 50 5 77 -1 29 4 59 12 73 10 16 12 28 5 40 -10 20 -5
58 11 79 5 7 7 17 4 22 -4 5 -2 12 3 16 6 3 7 13 4 22 -4 11 -3 14 6 9 10 -6
10 -3 0 12 -11 17 -11 24 2 39 12 14 15 44 13 143 -1 73 4 152 12 189 9 44 10
70 3 83 -5 10 -7 23 -3 30 4 6 6 50 5 98 -1 49 3 100 9 115 6 17 7 24 0 20 -6
-4 -7 2 -2 17 7 21 8 44 2 58 -7 19 -11 52 -12 93 0 26 -4 47 -10 47 -5 0 -6
9 -3 21 5 14 1 25 -12 34 -10 7 -15 17 -11 20 13 14 -12 46 -31 40 -11 -3 -25
3 -36 15 -14 16 -20 17 -27 8 -6 -10 -10 -10 -17 2 -5 8 -7 18 -4 22 2 5 0 15
-6 22 -8 10 -8 22 -1 40 6 18 6 25 0 21 -6 -3 -10 -13 -10 -21 0 -17 -12 -18
-28 -2 -18 18 -15 25 18 37 17 5 30 15 30 21 0 6 10 10 23 8 13 -2 21 2 20 10
-2 6 2 12 7 12 6 0 10 7 10 15 0 12 7 14 28 9 15 -4 33 -11 40 -17 9 -7 19 -4
33 9 12 11 23 18 25 16 11 -7 41 23 36 37 -4 10 -1 13 10 8 12 -4 14 -1 11 14
-6 23 19 26 37 4 10 -12 15 -13 28 -3 8 7 25 13 36 13 15 0 21 6 20 22 0 19 4
22 28 19 22 -3 29 1 34 18 5 22 44 54 44 37 0 -19 51 -7 70 17 11 14 23 22 26
19 11 -10 45 13 39 26 -3 7 0 5 6 -5 12 -15 14 -15 38 0 14 10 34 26 43 37 16
18 17 18 18 2 0 -29 27 -31 53 -3 13 14 29 26 36 26 6 0 11 3 11 8 0 22 80 35
125 20 16 -5 51 25 59 50 9 27 26 28 52 4 26 -24 50 -17 66 18 12 28 56 49 76
36 5 -3 22 -1 38 4 40 11 49 12 78 0z m-1105 -389 c8 -14 7 -20 -5 -25 -8 -3
-13 -2 -9 3 3 5 -2 17 -11 25 -14 14 -14 16 0 16 8 0 20 -9 25 -19z m-1201
-59 c-10 -12 -10 -14 0 -8 6 4 12 3 12 -3 0 -5 9 -9 19 -8 11 0 17 6 14 14 -6
15 2 16 26 3 10 -5 40 -11 67 -14 27 -3 50 -6 52 -7 1 -1 5 -2 10 -3 30 -7 52
-19 52 -28 0 -5 7 -8 15 -4 9 3 15 0 15 -10 0 -8 5 -12 10 -9 12 7 40 -12 40
-27 0 -5 -6 -6 -12 -2 -9 5 -8 2 1 -10 11 -13 16 -14 23 -4 11 16 68 -43 68
-71 0 -10 9 -26 20 -36 15 -14 17 -21 8 -26 -9 -6 -9 -11 1 -22 15 -19 4 -90
-13 -80 -6 3 -6 0 2 -8 6 -7 12 -23 12 -35 0 -12 6 -24 12 -26 9 -3 8 -9 -4
-22 -10 -9 -15 -23 -12 -31 4 -8 1 -15 -6 -15 -9 0 -8 -6 3 -18 10 -10 15 -21
13 -23 -13 -13 -14 -69 -2 -110 8 -26 12 -60 10 -76 -2 -15 -6 -44 -8 -63 -2
-19 -6 -47 -11 -62 -5 -19 -3 -28 4 -28 6 0 11 -5 11 -11 0 -6 -7 -9 -14 -6
-10 4 -13 1 -9 -9 3 -7 8 -14 12 -14 10 0 8 -31 -3 -48 -4 -6 -2 -12 3 -12 6
0 11 -7 11 -15 0 -8 -5 -15 -12 -15 -9 0 -9 -3 -1 -11 8 -8 8 -18 1 -35 -8
-17 -8 -27 2 -39 7 -8 9 -15 4 -15 -11 0 -10 -72 1 -89 4 -7 9 -34 12 -59 3
-26 10 -50 16 -54 8 -5 8 -8 1 -8 -6 0 -10 -18 -10 -42 1 -37 4 -43 21 -40 11
2 16 -1 10 -5 -14 -11 -20 -57 -6 -49 18 12 12 -16 -6 -30 -15 -11 -16 -16 -6
-33 7 -11 10 -28 6 -38 -6 -16 -5 -16 10 -4 18 14 24 2 8 -14 -17 -17 -20 -63
-5 -75 9 -8 11 -18 5 -29 -9 -19 -8 -58 3 -84 5 -9 6 -29 4 -42 -3 -14 -1 -25
4 -25 6 0 7 -7 4 -15 -3 -9 0 -25 7 -36 10 -17 9 -22 -5 -30 -23 -13 -23 -33
0 -25 16 7 16 6 0 -10 -17 -17 -17 -19 4 -42 13 -13 18 -26 13 -30 -6 -4 -10
-18 -10 -32 0 -14 -4 -29 -10 -33 -6 -6 -5 -10 4 -14 11 -5 11 -7 0 -14 -12
-7 -11 -14 4 -41 12 -21 15 -34 8 -36 -6 -2 -9 -7 -6 -12 3 -4 -6 -11 -20 -14
-28 -7 -33 -21 -9 -30 9 -3 14 -13 11 -21 -4 -10 -1 -12 11 -7 16 6 16 4 0
-20 -16 -24 -16 -28 -2 -43 16 -16 22 -111 12 -183 -2 -20 1 -37 9 -44 14 -11
18 -33 5 -24 -4 2 -6 -14 -4 -36 3 -22 -1 -45 -7 -51 -7 -7 -7 -14 0 -23 17
-20 1 -56 -21 -49 -25 8 -34 -10 -14 -29 9 -9 12 -21 7 -28 -4 -7 -6 -23 -5
-35 4 -25 -28 -61 -48 -55 -7 3 -10 0 -6 -6 12 -19 -22 -59 -50 -59 -17 0 -24
4 -20 13 4 11 1 12 -13 4 -14 -7 -21 -6 -24 3 -3 7 -9 2 -14 -12 -9 -22 -10
-22 -26 -6 -9 9 -17 13 -17 9 0 -4 -6 0 -13 11 -10 13 -21 16 -39 12 -17 -5
-30 -2 -39 9 -7 8 -20 13 -29 11 -25 -6 -53 19 -47 42 3 13 1 18 -8 15 -16 -7
-45 34 -38 52 3 8 0 14 -7 14 -7 0 -10 6 -7 14 9 22 -13 37 -36 25 -13 -8 -22
-8 -30 0 -8 8 -8 11 2 11 7 0 9 5 6 11 -4 6 -13 8 -21 5 -17 -6 -18 6 -3 21 9
9 -2 26 -40 66 -48 51 -77 64 -92 43 -4 -4 -10 -3 -13 3 -4 6 -3 11 3 11 5 0
9 9 8 20 -1 11 -8 20 -17 20 -9 0 -22 6 -29 12 -11 10 -13 10 -7 1 10 -18 -9
-16 -24 2 -11 13 -10 14 3 10 8 -4 18 -2 22 4 3 6 1 11 -4 11 -6 0 -11 8 -11
18 0 10 -3 13 -8 7 -4 -6 -19 -10 -34 -10 -16 1 -27 -4 -27 -10 4 -36 -25 -68
-45 -48 -10 10 -36 12 -36 3 0 -13 18 -22 22 -11 1 5 10 2 18 -7 13 -14 12
-15 -3 -9 -11 4 -20 0 -27 -14 -6 -11 -15 -17 -20 -14 -18 11 -37 -7 -34 -31
2 -21 -1 -25 -16 -21 -11 3 -21 -1 -24 -9 -3 -8 -11 -14 -18 -14 -7 0 -28 -13
-46 -30 -18 -16 -40 -26 -48 -23 -10 4 -12 0 -8 -11 3 -9 1 -16 -6 -16 -6 0
-8 -5 -4 -12 4 -6 3 -8 -4 -4 -6 3 -13 2 -17 -4 -4 -7 -12 -7 -25 0 -22 12
-41 13 -22 2 15 -10 0 -62 -17 -62 -6 0 -8 -7 -5 -15 4 -8 1 -15 -5 -15 -6 0
-11 4 -11 9 0 15 -29 21 -43 8 -20 -19 -55 -37 -72 -37 -8 0 -19 -9 -25 -20
-6 -11 -19 -20 -30 -20 -24 0 -53 -31 -79 -83 -15 -29 -22 -36 -26 -25 -5 12
-14 14 -43 7 -28 -6 -41 -4 -54 8 -10 9 -18 12 -18 7 -1 -5 -7 6 -16 25 -13
32 -13 36 6 56 24 25 26 37 5 29 -10 -4 -15 0 -15 14 0 11 -7 25 -15 32 -8 7
-15 21 -15 31 0 21 -56 79 -75 79 -10 0 -11 10 -4 42 7 30 7 43 -2 49 -10 6
-10 11 0 23 9 11 10 20 2 33 -6 11 -11 13 -11 5 0 -7 -5 -10 -11 -7 -6 4 -8
13 -5 21 3 8 0 11 -10 7 -11 -4 -13 2 -10 30 4 25 0 40 -13 51 -19 17 -21 69
-6 129 5 19 3 27 -6 27 -10 0 -10 3 -2 11 6 6 9 18 6 27 -4 10 -2 13 5 8 7 -4
13 -1 13 6 1 7 2 18 4 23 1 6 3 21 4 35 1 21 3 22 12 10 9 -13 10 -13 6 2 -3
9 -1 19 6 22 7 3 1 3 -12 0 -20 -5 -23 -3 -18 11 4 9 7 21 7 26 0 6 4 8 9 5 5
-3 13 0 18 7 14 17 24 85 14 92 -5 2 -8 26 -6 52 1 27 -2 54 -8 60 -9 12 26
101 44 113 9 6 7 29 -3 45 -7 12 -2 84 6 92 3 4 1 12 -5 20 -9 10 -8 13 0 13
7 0 9 5 4 13 -11 18 -13 78 -3 97 6 11 5 21 -1 27 -7 7 -8 17 -1 29 7 13 6 31
-3 58 -12 35 -12 40 5 59 19 20 26 87 9 87 -4 0 -5 16 -2 37 4 26 3 34 -5 29
-7 -4 -12 -2 -12 4 0 6 7 13 16 17 11 4 13 13 9 35 -5 19 -1 37 9 53 19 29 20
58 5 87 -9 17 -8 23 5 30 12 6 14 17 10 36 -9 38 -15 46 -24 31 -6 -9 -12 -10
-22 -1 -13 10 -91 7 -111 -5 -12 -7 -48 28 -40 39 3 6 0 13 -6 17 -6 4 -13 37
-14 74 -3 58 -1 69 19 86 12 11 25 17 28 14 3 -4 6 -2 6 3 0 6 -5 15 -12 22
-13 13 -5 17 47 25 58 10 126 32 119 40 -4 4 4 7 19 7 30 0 38 18 33 72 -2 21
1 35 5 32 5 -3 9 0 9 5 0 6 12 11 26 11 23 0 26 -3 22 -25 -3 -14 -1 -25 3
-25 5 0 9 -7 9 -15 0 -9 11 -21 25 -27 13 -6 27 -19 30 -30 4 -10 10 -18 15
-18 4 0 10 -9 13 -20 3 -11 1 -20 -4 -20 -5 0 -9 -5 -9 -11 0 -5 4 -7 10 -4 6
3 10 -1 10 -9 0 -9 5 -16 11 -16 5 0 7 -4 4 -10 -3 -5 -2 -18 4 -27 8 -14 9
-10 6 19 -3 23 0 38 8 41 8 3 12 -8 11 -37 0 -38 2 -42 25 -43 45 -1 51 -3 51
-14 0 -8 -6 -7 -17 2 -15 12 -16 12 -10 -4 4 -10 3 -16 -2 -12 -5 3 -12 1 -15
-4 -3 -5 1 -11 9 -15 8 -3 15 -12 15 -21 0 -8 6 -15 14 -15 8 0 20 -13 28 -30
7 -16 18 -30 25 -30 6 0 9 -8 6 -20 -4 -14 0 -20 11 -20 14 0 20 -11 17 -32 0
-4 4 -19 9 -34 7 -18 7 -30 0 -39 -8 -9 -3 -19 19 -38 17 -14 27 -28 24 -31
-4 -3 -1 -6 5 -6 14 0 16 47 2 52 -14 4 0 48 15 48 7 0 18 7 25 15 11 13 15
13 21 3 6 -10 11 -8 22 6 8 11 34 25 57 32 36 11 48 10 71 -2 35 -18 40 -18
33 1 -4 8 -1 15 5 15 6 0 11 -4 11 -9 0 -14 29 -18 72 -10 41 7 58 -4 58 -36
0 -16 2 -17 10 -5 7 12 12 11 31 -5 20 -18 22 -18 16 -2 -4 9 -4 17 0 17 11 0
32 -35 33 -52 0 -10 7 -18 15 -18 26 0 23 -74 -5 -105 -20 -23 -22 -87 -2
-107 17 -17 15 -28 -5 -21 -11 5 -14 3 -8 -6 6 -10 3 -11 -15 -1 -18 10 -24 9
-34 -6 -7 -9 -18 -14 -23 -11 -15 9 -24 -32 -10 -44 7 -5 20 -16 31 -23 10 -7
19 -23 20 -37 1 -16 7 -24 18 -23 9 1 45 -26 80 -60 60 -58 63 -64 63 -108 0
-25 -2 -46 -5 -46 -14 2 -39 -15 -34 -23 3 -5 2 -8 -3 -7 -4 1 -18 -3 -29 -10
-12 -6 -24 -9 -27 -6 -3 3 -14 1 -24 -5 -10 -6 -12 -11 -5 -11 14 0 17 -30 3
-30 -6 0 -13 5 -17 12 -5 7 -10 4 -16 -11 -4 -12 -12 -19 -18 -16 -14 9 -61
-47 -56 -67 2 -10 3 -18 2 -18 0 0 -16 4 -34 9 -17 5 -32 8 -32 6 0 -2 -3 -12
-6 -22 -5 -15 -4 -15 5 -3 7 9 11 10 11 3 0 -18 -17 -25 -37 -15 -24 12 -43 4
-36 -14 5 -14 -41 -59 -62 -59 -5 0 -17 -13 -26 -30 -16 -29 -61 -45 -58 -21
4 30 -2 57 -11 51 -6 -4 -8 6 -6 25 2 17 -1 33 -6 36 -5 3 -5 11 0 17 5 7 8
43 6 80 -2 59 0 66 13 56 12 -11 13 -8 8 14 -4 15 -3 27 2 27 4 0 9 19 9 43 1
23 4 65 8 92 4 28 9 64 10 80 2 17 8 41 13 55 11 27 7 53 -8 44 -5 -3 -9 -1
-9 5 0 5 10 13 21 16 12 4 17 10 12 14 -15 10 -24 41 -12 41 6 0 9 6 6 14 -3
8 -1 17 6 20 7 3 2 3 -10 0 -20 -5 -22 -2 -18 26 2 16 0 28 -5 25 -5 -3 -11
-1 -15 4 -3 6 -13 7 -22 4 -13 -5 -15 -2 -10 11 5 12 3 16 -5 13 -18 -6 -48
22 -41 39 4 10 -3 14 -22 14 -15 0 -24 -4 -20 -10 4 -6 -5 -5 -20 2 -19 9 -24
16 -19 32 6 20 5 20 -10 -1 -9 -12 -29 -32 -44 -44 -15 -12 -20 -20 -12 -17
11 4 16 -3 18 -30 1 -19 7 -42 14 -49 9 -11 8 -13 -2 -11 -7 2 -14 -6 -15 -17
-1 -11 -6 -28 -10 -37 -4 -11 -3 -18 5 -18 13 0 3 -41 -12 -51 -6 -4 -11 -30
-12 -58 0 -28 -5 -51 -10 -51 -6 0 -5 -5 2 -12 15 -15 16 -64 2 -73 -5 -3 -10
-24 -10 -46 0 -22 -5 -39 -11 -39 -8 0 -8 -4 0 -14 8 -9 10 -28 5 -50 -5 -30
-3 -36 11 -36 13 0 15 -3 6 -13 -6 -8 -8 -17 -4 -20 3 -4 2 -7 -3 -7 -5 0 -10
-12 -10 -28 -1 -15 1 -21 3 -14 7 19 25 14 19 -5 -3 -10 -1 -25 4 -33 5 -9 5
-19 -2 -28 -8 -10 -6 -20 9 -41 16 -20 18 -32 11 -45 -5 -9 -7 -24 -4 -32 3
-8 0 -14 -6 -14 -7 0 -7 -4 -1 -12 6 -7 11 -20 11 -28 1 -37 10 -136 13 -145
4 -17 -13 -65 -23 -65 -7 0 -7 -4 -1 -12 14 -18 10 -71 -6 -76 -9 -3 -8 -9 5
-24 13 -14 15 -21 7 -26 -20 -12 2 -112 24 -112 4 0 20 12 35 27 15 15 28 21
28 14 0 -8 13 -2 33 13 17 15 37 30 42 34 6 5 15 7 22 5 6 -2 28 12 49 31 22
20 46 36 55 36 9 0 24 9 34 20 10 12 24 19 30 17 12 -5 50 23 51 38 3 39 19
75 35 80 11 4 17 10 14 15 -2 4 9 10 25 13 16 4 41 20 56 37 33 36 38 37 66 5
27 -32 37 -32 33 0 -1 16 3 25 12 25 7 0 16 7 19 15 4 10 14 14 25 10 11 -3
29 -8 40 -11 14 -4 19 -2 15 5 -4 6 -2 11 5 11 7 0 9 3 6 6 -8 8 43 54 59 54
6 0 17 11 24 25 7 13 17 22 22 19 12 -8 48 25 48 43 0 8 4 12 9 9 11 -7 23 22
14 36 -3 7 -1 8 5 4 7 -4 13 -1 13 6 1 7 3 20 4 28 0 8 5 27 9 41 5 18 2 37
-8 58 -13 25 -14 36 -5 53 7 12 12 46 13 76 0 42 -4 56 -18 64 -16 9 -16 11 0
29 11 13 14 27 10 46 -12 47 -13 83 -4 83 5 0 6 21 3 48 -10 87 -12 197 -3
215 6 12 5 23 -2 33 -7 7 -9 21 -6 30 4 11 2 15 -6 11 -10 -3 -13 10 -13 49 0
30 3 54 6 54 3 0 4 14 1 30 -2 17 -7 30 -11 30 -9 0 -8 42 2 57 4 6 3 14 -3
18 -6 4 -7 12 -3 18 10 16 11 117 1 117 -4 0 -8 13 -8 29 0 17 -4 32 -8 35 -5
3 -8 29 -8 58 1 54 -18 94 -33 69 -6 -9 -11 -8 -21 3 -10 13 -9 17 4 22 9 3
23 4 31 0 9 -3 15 0 15 8 0 17 -27 29 -35 16 -10 -16 -25 -11 -26 8 -1 16 -2
16 -6 0 -6 -22 -20 -23 -39 -3 -9 8 -21 15 -27 14 -9 0 -8 -2 1 -6 19 -7 14
-19 -8 -19 -14 0 -19 5 -15 15 5 11 1 11 -13 -2 -11 -10 -26 -15 -35 -12 -22
9 -33 -16 -13 -31 9 -6 13 -15 8 -18 -6 -3 -13 1 -16 10 -4 10 -14 14 -26 11
-11 -3 -20 -2 -20 3 0 4 -13 7 -29 6 -23 -1 -27 -4 -18 -14 8 -10 7 -16 -3
-22 -8 -5 -18 -6 -22 -4 -4 3 -8 1 -8 -4 0 -6 -11 -13 -25 -16 -15 -4 -23 -11
-19 -17 3 -6 -2 -10 -12 -9 -35 4 -43 0 -37 -17 5 -13 2 -15 -11 -10 -10 4
-15 3 -11 -3 3 -6 -1 -10 -9 -10 -9 0 -16 -5 -16 -11 0 -6 -9 -8 -21 -4 -18 6
-20 4 -14 -14 4 -12 2 -21 -4 -21 -6 0 -11 7 -11 15 0 18 -17 20 -23 3 -3 -10
-7 -10 -20 1 -14 11 -20 11 -34 0 -13 -11 -17 -11 -20 -1 -7 20 -23 14 -35
-13 -12 -26 -51 -35 -63 -15 -4 6 -11 8 -16 5 -5 -4 -9 -1 -9 5 0 8 -6 8 -20
0 -16 -8 -20 -8 -18 2 2 7 -2 12 -7 11 -6 -1 -11 7 -11 17 0 12 5 16 16 12 8
-3 -3 12 -24 33 -23 23 -34 41 -27 43 9 3 9 8 -2 21 -21 24 -27 59 -14 94 12
35 30 57 46 57 6 0 11 5 11 10 0 6 12 15 26 20 14 6 23 14 20 18 -3 5 8 6 25
4 23 -3 36 2 59 27 26 27 51 38 63 29 2 -2 11 3 20 10 10 9 17 10 22 2 3 -5 0
-10 -7 -10 -8 0 -6 -5 5 -11 13 -8 22 -5 41 15 27 31 36 32 37 9 0 -11 3 -13
6 -5 2 6 10 12 17 12 18 0 76 30 76 39 0 3 21 13 47 20 48 15 110 65 105 85
-2 7 1 7 9 -1 16 -16 33 -17 24 -2 -4 5 1 19 11 30 17 19 17 20 -2 13 -17 -7
-17 -6 -6 9 8 8 23 17 35 19 12 2 26 12 31 23 5 11 19 21 33 21 20 2 22 0 11
-14z m1822 8 c0 -5 -5 -10 -11 -10 -5 0 -7 5 -4 10 3 6 8 10 11 10 2 0 4 -4 4
-10z m-270 -89 c0 -5 -7 -11 -15 -15 -15 -5 -20 5 -8 17 9 10 23 9 23 -2z
m-1870 -51 c0 -5 -4 -10 -10 -10 -5 0 -10 5 -10 10 0 6 5 10 10 10 6 0 10 -4
10 -10z m27 -27 c3 -7 -4 -9 -16 -6 -12 3 -18 9 -15 15 7 11 26 6 31 -9z
m2968 -116 c0 -20 -4 -36 -10 -34 -5 1 -9 5 -7 10 1 4 -9 12 -22 17 -24 9 -44
30 -29 30 5 0 14 -5 21 -10 6 -6 10 -7 7 -4 -7 10 16 35 29 31 6 -2 11 -20 11
-40z m-735 7 c0 -8 -4 -12 -10 -9 -5 3 -10 10 -10 16 0 5 5 9 10 9 6 0 10 -7
10 -16z m700 -80 c0 -8 -5 -12 -10 -9 -6 4 -8 11 -5 16 9 14 15 11 15 -7z
m-3486 -100 c3 -8 2 -12 -4 -9 -6 3 -10 -2 -10 -11 0 -13 -3 -15 -10 -8 -11
11 -3 44 10 44 4 0 11 -7 14 -16z m581 -114 c3 -5 1 -10 -4 -10 -6 0 -11 5
-11 10 0 6 2 10 4 10 3 0 8 -4 11 -10z m-474 -56 c-6 -11 -11 -17 -11 -14 -1
3 -3 18 -5 34 -4 27 -3 28 12 14 12 -12 13 -20 4 -34z m-127 -79 c-7 -16 -24
-21 -24 -6 0 8 7 13 27 20 1 1 0 -6 -3 -14z m976 -25 c0 -5 -5 -10 -11 -10 -5
0 -7 5 -4 10 3 6 8 10 11 10 2 0 4 -4 4 -10z m-6 -162 c-4 -34 -4 -34 -14 -16
-11 17 -3 51 9 43 4 -2 7 -14 5 -27z m1316 13 c0 -5 -7 -11 -14 -14 -10 -4
-13 -1 -9 9 6 15 23 19 23 5z m780 -21 c0 -5 -4 -10 -10 -10 -5 0 -10 5 -10
10 0 6 5 10 10 10 6 0 10 -4 10 -10z m-3370 -40 c0 -5 -5 -10 -11 -10 -5 0 -7
5 -4 10 3 6 8 10 11 10 2 0 4 -4 4 -10z m434 -205 c-6 -16 -24 -21 -24 -7 0
11 11 22 21 22 5 0 6 -7 3 -15z m2166 -32 c0 -5 -7 -17 -15 -27 -12 -16 -17
-17 -30 -6 -15 12 -13 15 12 26 15 7 29 13 31 13 1 1 2 -2 2 -6z m1160 -222
c0 -12 -20 -25 -27 -18 -7 7 6 27 18 27 5 0 9 -4 9 -9z m-3332 -61 c-7 -10
-14 -17 -17 -15 -4 4 18 35 25 35 2 0 -1 -9 -8 -20z m2447 -20 c-3 -5 -11 -10
-16 -10 -6 0 -7 5 -4 10 3 6 11 10 16 10 6 0 7 -4 4 -10z m-1181 -114 c-3 -9
-10 -16 -15 -16 -5 0 -4 9 3 20 14 22 21 20 12 -4z m1076 -531 c0 -18 -7 -26
-25 -31 -13 -3 -27 -15 -30 -26 -7 -19 -26 -20 -32 -2 -5 15 60 78 85 83 1 1
2 -10 2 -24z m-270 -35 c0 -5 -4 -10 -10 -10 -5 0 -10 5 -10 10 0 6 5 10 10
10 6 0 10 -4 10 -10z m839 -11 c-22 -13 -31 -11 -17 5 7 8 17 12 22 9 4 -3 2
-9 -5 -14z m-849 -84 c7 -9 8 -15 2 -15 -5 0 -12 7 -16 15 -3 8 -4 15 -2 15 2
0 9 -7 16 -15z m860 -125 c0 -5 -2 -10 -4 -10 -3 0 -8 5 -11 10 -3 6 -1 10 4
10 6 0 11 -4 11 -10z m-2440 -166 c0 -11 -5 -10 -20 3 -11 10 -20 18 -20 19 0
1 9 0 20 -3 11 -3 20 -12 20 -19z m2044 -59 c-4 -8 -10 -12 -15 -9 -11 6 -2
24 11 24 5 0 7 -7 4 -15z m-1904 -5 c0 -5 -7 -10 -15 -10 -8 0 -15 5 -15 10 0
6 7 10 15 10 8 0 15 -4 15 -10z m-339 -63 c-10 -9 -11 -8 -5 6 3 10 9 15 12
12 3 -3 0 -11 -7 -18z m402 -8 c-9 -9 -12 -7 -10 9 1 14 5 18 11 12 7 -7 6
-14 -1 -21z m2652 -9 c3 -5 1 -10 -4 -10 -6 0 -11 5 -11 10 0 6 2 10 4 10 3 0
8 -4 11 -10z m-3125 -40 c0 -5 -4 -10 -10 -10 -5 0 -10 5 -10 10 0 6 5 10 10
10 6 0 10 -4 10 -10z m1016 -217 c-7 -7 -26 7 -26 19 0 6 6 6 15 -2 9 -7 13
-15 11 -17z m-1556 -103 c0 -5 -4 -10 -10 -10 -5 0 -10 5 -10 10 0 6 5 10 10
10 6 0 10 -4 10 -10z m1910 -145 c0 -20 -10 -18 -40 6 -14 11 -19 18 -12 14 6
-3 12 -1 12 5 0 8 6 8 20 0 11 -6 20 -17 20 -25z"/>
<path d="M2917 3853 c-12 -12 -7 -19 15 -20 13 -1 18 1 13 5 -6 4 -13 11 -16
15 -3 4 -9 4 -12 0z"/>
<path d="M4440 3833 c0 -13 5 -23 10 -23 13 0 13 11 0 30 -8 12 -10 11 -10 -7z"/>
<path d="M3026 3693 c-4 -9 0 -23 9 -32 13 -14 15 -13 15 11 0 32 -15 45 -24
21z"/>
<path d="M4420 3369 c0 -5 5 -7 10 -4 6 3 10 8 10 11 0 2 -4 4 -10 4 -5 0 -10
-5 -10 -11z"/>
<path d="M3748 3019 c-3 -9 -2 -22 2 -30 13 -19 18 -8 10 21 -4 19 -7 21 -12
9z"/>
<path d="M2885 1040 c3 -5 8 -10 11 -10 2 0 4 5 4 10 0 6 -5 10 -11 10 -5 0
-7 -4 -4 -10z"/>
<path d="M4438 793 c72 -2 192 -2 265 0 72 1 13 3 -133 3 -146 0 -205 -2 -132
-3z"/>
<path d="M4332 713 l3 -48 48 -3 47 -3 0 50 0 51 -51 0 -50 0 3 -47z m88 2 c0
-33 -2 -35 -35 -35 -33 0 -35 2 -35 35 0 33 2 35 35 35 33 0 35 -2 35 -35z"/>
<path d="M4360 715 c0 -20 5 -25 25 -25 20 0 25 5 25 25 0 20 -5 25 -25 25
-20 0 -25 -5 -25 -25z"/>
<path d="M4465 752 c-6 -4 -11 -26 -12 -50 0 -24 -3 -46 -6 -48 -3 -3 -30 -6
-60 -6 -61 -2 -64 -12 -16 -52 19 -16 21 -16 16 -1 -7 17 13 45 32 45 17 0 13
-20 -5 -27 -11 -4 -12 -8 -4 -13 9 -6 6 -14 -9 -29 -21 -21 -36 -28 -28 -13 2
4 -4 14 -13 23 -16 15 -17 15 -17 -8 0 -18 2 -21 8 -12 7 11 9 10 9 -3 0 -9
-8 -19 -17 -21 -17 -4 -17 -5 0 -6 11 -1 17 -9 17 -24 0 -15 6 -24 15 -24 9 0
14 6 11 13 -3 8 0 11 10 7 8 -3 13 -12 10 -19 -3 -8 1 -14 9 -14 9 0 12 -6 9
-17 -4 -13 -3 -14 3 -5 5 7 33 14 62 16 54 4 81 -10 81 -42 0 -13 2 -14 13 -3
10 11 10 14 0 18 -18 7 -16 33 2 33 8 0 15 -7 15 -15 0 -11 9 -7 31 12 18 17
28 34 26 45 -3 9 0 19 7 22 6 2 3 5 -6 5 -14 1 -18 10 -18 36 0 43 16 46 25 5
4 -16 10 -29 13 -28 4 1 19 -4 34 -10 15 -6 36 -8 45 -5 14 5 12 0 -7 -23 -14
-17 -28 -27 -31 -21 -4 5 -9 3 -12 -4 -4 -10 -6 -10 -6 -1 -1 15 -31 16 -31 1
0 -5 5 -7 12 -3 7 4 8 3 4 -5 -4 -6 -11 -9 -15 -7 -4 3 -13 1 -21 -4 -13 -8
-13 -13 -2 -31 7 -11 10 -24 6 -27 -4 -4 -9 -1 -11 6 -6 16 -39 16 -46 0 -2
-7 -1 -22 4 -33 7 -18 8 -18 8 -1 1 12 6 16 17 12 9 -3 22 -6 30 -6 20 0 17
-17 -4 -22 -27 -8 -28 -68 -1 -68 10 0 19 5 19 10 0 6 5 10 11 10 5 0 7 -4 4
-10 -3 -5 -1 -10 4 -10 6 0 11 6 11 13 0 8 4 7 10 -3 7 -11 8 -6 4 18 -6 31 9
46 19 20 4 -10 6 -10 6 0 1 14 31 17 31 3 0 -5 -9 -13 -20 -16 -11 -3 -20 -13
-20 -21 0 -10 5 -9 20 6 11 11 24 20 29 20 5 0 12 7 15 15 3 9 1 15 -7 14 -30
-4 -49 2 -44 14 2 6 1 21 -4 32 -6 16 -8 14 -8 -12 -1 -28 -5 -33 -26 -33 -20
0 -25 5 -25 24 0 19 4 23 20 19 11 -3 20 0 20 6 0 6 -11 13 -25 17 -30 7 -32
20 -6 27 13 3 21 -1 23 -12 2 -10 10 -3 21 22 12 25 25 37 39 37 14 0 18 5 14
15 -3 8 0 15 7 15 8 0 7 4 -3 10 -13 9 -13 11 0 21 13 9 12 10 -2 5 -12 -4
-18 0 -18 11 0 9 -3 13 -7 10 -10 -11 -32 13 -26 29 5 12 10 11 29 -7 27 -25
41 -21 26 8 -13 24 -113 27 -119 3 -4 -13 -3 -13 6 0 5 8 13 11 18 7 9 -10
-16 -27 -32 -21 -6 3 -10 18 -9 34 1 18 -4 31 -13 34 -8 4 -13 13 -9 21 3 9 0
15 -9 15 -7 0 -17 9 -20 20 -5 15 -15 20 -38 19 -18 -1 -24 -3 -15 -6 22 -6
12 -33 -12 -33 -11 0 -22 5 -25 11 -5 6 -13 3 -22 -10 -17 -24 -8 -48 11 -32
12 10 26 5 26 -9 0 -14 -43 -3 -55 14 -16 21 -8 53 14 59 12 4 13 5 1 6 -8 0
-20 -3 -25 -7z m146 -44 c27 -38 29 -108 3 -108 -10 0 -14 12 -14 43 0 27 -3
37 -9 28 -6 -10 -10 -10 -16 -1 -4 6 1 20 11 31 16 17 16 19 1 19 -10 0 -17 5
-17 10 0 19 18 10 41 -22z m-41 -8 c0 -5 -9 -10 -20 -10 -11 0 -20 5 -20 10 0
6 9 10 20 10 11 0 20 -4 20 -10z m-80 -41 c0 -14 -17 -10 -23 5 -4 10 -1 13 9
9 7 -3 14 -9 14 -14z m75 1 c8 -24 -2 -60 -16 -60 -6 0 -7 5 -4 10 3 6 -1 10
-10 10 -9 0 -14 -4 -11 -9 3 -5 -2 -8 -12 -7 -13 1 -17 -7 -16 -36 1 -29 -2
-35 -14 -31 -10 4 -13 2 -8 -5 3 -6 2 -14 -4 -17 -8 -5 -7 -11 1 -21 6 -8 8
-14 3 -14 -15 0 -45 60 -31 60 8 0 8 3 -1 9 -7 4 -15 20 -16 35 -3 23 0 27 15
23 14 -4 19 0 19 15 0 10 5 16 10 13 6 -4 8 -11 5 -16 -4 -5 -2 -9 4 -9 5 0
12 14 16 30 6 29 25 42 25 17 0 -7 9 -18 20 -25 17 -10 20 -10 20 3 0 8 -7 15
-15 15 -16 0 -20 12 -8 23 12 12 22 7 28 -13z m-185 -30 c0 -5 -4 -10 -10 -10
-5 0 -10 5 -10 10 0 6 5 10 10 10 6 0 10 -4 10 -10z m350 0 c0 -5 -6 -10 -12
-11 -10 0 -10 -2 0 -6 6 -2 12 -11 12 -18 0 -8 9 -16 19 -20 33 -10 33 -32 0
-30 -32 2 -46 11 -35 22 4 4 11 1 16 -7 6 -8 10 -10 10 -5 -1 6 -7 18 -14 28
-11 14 -15 15 -19 5 -4 -9 -6 -8 -6 4 -1 23 9 48 20 48 5 0 9 -4 9 -10z m-40
-34 c0 -3 -4 -8 -10 -11 -5 -3 -10 -1 -10 4 0 6 5 11 10 11 6 0 10 -2 10 -4z
m-263 -68 c1 -12 -5 -18 -19 -18 -14 0 -18 5 -14 16 3 9 6 22 6 30 0 22 26 -4
27 -28z m141 11 c3 -12 2 -12 -6 0 -8 11 -11 9 -15 -10 -4 -22 -4 -22 -6 4 -1
30 19 34 27 6z m28 -4 c-3 -23 -12 -26 -13 -5 -1 11 2 20 7 20 4 0 7 -7 6 -15z
m-206 1 c0 -11 -19 -15 -25 -6 -3 5 1 10 9 10 9 0 16 -2 16 -4z m51 -50 c5 3
9 0 9 -6 0 -15 -23 -7 -26 8 -1 7 0 8 3 2 2 -5 9 -8 14 -4z m219 -136 c0 -5
-4 -10 -10 -10 -5 0 -10 5 -10 10 0 6 5 10 10 10 6 0 10 -4 10 -10z m40 -7 c0
-11 -48 -32 -55 -25 -3 3 5 12 17 19 27 14 38 16 38 6z"/>
<path d="M4440 573 c8 -3 18 -11 22 -17 5 -7 8 -6 8 4 0 13 1 13 10 0 8 -13
10 -12 10 3 0 13 -8 17 -32 16 -18 0 -26 -3 -18 -6z"/>
<path d="M4521 744 c0 -11 3 -14 6 -6 3 7 2 16 -1 19 -3 4 -6 -2 -5 -13z"/>
<path d="M4610 750 c0 -5 5 -10 10 -10 6 0 10 5 10 10 0 6 -4 10 -10 10 -5 0
-10 -4 -10 -10z"/>
<path d="M4640 749 c0 -5 5 -9 11 -9 6 0 9 -6 6 -13 -3 -7 1 -26 8 -42 13 -29
13 -29 12 20 -2 41 -6 51 -19 52 -10 1 -18 -2 -18 -8z"/>
<path d="M4700 709 l0 -50 48 3 47 3 3 48 3 47 -50 0 -51 0 0 -51z m80 6 c0
-33 -2 -35 -35 -35 -33 0 -35 2 -35 35 0 33 2 35 35 35 33 0 35 -2 35 -35z"/>
<path d="M4730 715 c0 -18 5 -25 20 -25 15 0 20 7 20 25 0 18 -5 25 -20 25
-15 0 -20 -7 -20 -25z"/>
<path d="M4336 495 c4 -8 8 -15 10 -15 2 0 4 7 4 15 0 8 -4 15 -10 15 -5 0 -7
-7 -4 -15z"/>
<path d="M4753 476 c-28 -27 -29 -36 -3 -36 18 0 25 -16 21 -42 0 -5 6 -8 14
-8 17 0 17 40 0 53 -6 4 -4 11 5 17 9 6 10 10 3 10 -6 0 -13 6 -15 13 -2 10
-9 8 -25 -7z m17 -10 c0 -3 -4 -8 -10 -11 -5 -3 -10 -1 -10 4 0 6 5 11 10 11
6 0 10 -2 10 -4z"/>
<path d="M4380 450 c0 -5 5 -10 10 -10 6 0 10 5 10 10 0 6 -4 10 -10 10 -5 0
-10 -4 -10 -10z"/>
<path d="M4520 445 c0 -10 -11 -15 -35 -15 -32 0 -35 -2 -35 -30 0 -16 5 -30
10 -30 6 0 10 6 10 14 0 8 7 16 15 20 13 5 13 2 0 -18 -13 -19 -13 -25 -3 -29
10 -4 10 -8 -2 -16 -11 -8 -17 -6 -21 7 -5 11 -7 5 -6 -15 0 -18 4 -33 9 -33
4 0 8 7 8 15 0 8 4 15 10 15 5 0 8 -6 6 -12 -1 -7 -1 -10 1 -5 7 11 31 8 36
-5 4 -10 6 -10 6 0 1 14 61 17 61 2 0 -5 5 -10 11 -10 6 0 9 8 7 17 -2 12 -13
17 -37 17 -19 1 -36 7 -38 14 -3 6 2 12 10 12 9 0 17 -5 19 -12 3 -7 10 -8 17
-4 11 7 11 10 0 17 -12 7 -12 9 0 9 11 0 11 3 1 15 -7 8 -19 15 -27 15 -8 0
-13 8 -12 18 3 29 -1 42 -11 42 -5 0 -10 -7 -10 -15z m50 -65 c0 -5 -11 -11
-25 -11 -14 -1 -30 -2 -37 -3 -6 -1 -13 5 -15 12 -3 8 8 12 36 12 23 0 41 -4
41 -10z m-45 -40 c3 -5 -3 -10 -15 -10 -12 0 -18 5 -15 10 3 6 10 10 15 10 5
0 12 -4 15 -10z"/>
<path d="M4336 433 c5 -5 12 -12 16 -18 4 -6 8 -2 8 8 0 9 -7 17 -17 17 -9 0
-12 -3 -7 -7z"/>
<path d="M4330 350 l0 -50 50 0 50 0 0 50 0 50 -50 0 -50 0 0 -50z m90 5 c0
-33 -2 -35 -35 -35 -33 0 -35 2 -35 35 0 33 2 35 35 35 33 0 35 -2 35 -35z"/>
<path d="M4360 350 c0 -15 7 -20 25 -20 18 0 25 5 25 20 0 15 -7 20 -25 20
-18 0 -25 -5 -25 -20z"/>
<path d="M4755 310 c-3 -5 -1 -10 4 -10 6 0 11 5 11 10 0 6 -2 10 -4 10 -3 0
-8 -4 -11 -10z"/>
<path d="M4341 224 c0 -11 3 -14 6 -6 3 7 2 16 -1 19 -3 4 -6 -2 -5 -13z"/>
<path d="M4363 227 c5 -16 47 -19 47 -3 0 8 -11 14 -25 14 -14 0 -24 -5 -22
-11z"/>
<path d="M4420 222 c0 -15 2 -15 10 -2 5 8 10 10 10 4 0 -6 7 -11 15 -11 8 0
11 5 8 10 -4 7 1 7 13 3 35 -15 76 -17 71 -3 -2 7 -27 13 -65 14 -52 1 -62 -1
-62 -15z"/>
<path d="M4610 224 c0 -8 5 -12 10 -9 6 3 10 10 10 16 0 5 -4 9 -10 9 -5 0
-10 -7 -10 -16z"/>
<path d="M4640 225 c0 -8 4 -15 8 -15 5 0 9 7 9 15 0 8 -4 15 -9 15 -4 0 -8
-7 -8 -15z"/>
<path d="M4682 228 c6 -18 28 -21 28 -4 0 9 -7 16 -16 16 -9 0 -14 -5 -12 -12z"/>
<path d="M4720 230 c0 -5 9 -10 21 -10 11 0 17 5 14 10 -3 6 -13 10 -21 10 -8
0 -14 -4 -14 -10z"/>
<path d="M4433 173 c76 -2 198 -2 270 0 73 1 11 3 -138 3 -148 0 -208 -2 -132
-3z"/>
<path d="M1114 2879 c-3 -6 2 -18 12 -27 17 -16 17 -16 5 0 -7 9 -10 22 -6 28
3 5 4 10 1 10 -3 0 -8 -5 -12 -11z"/>
<path d="M1116 2827 c3 -10 9 -15 12 -12 3 3 0 11 -7 18 -10 9 -11 8 -5 -6z"/>
<path d="M1380 2700 c0 -5 5 -10 11 -10 5 0 7 5 4 10 -3 6 -8 10 -11 10 -2 0
-4 -4 -4 -10z"/>
<path d="M2000 1795 c-11 -13 -10 -19 5 -35 20 -22 44 -28 26 -7 -6 8 -8 16
-5 20 3 3 2 13 -3 22 -9 15 -11 15 -23 0z"/>
<path d="M1974 1762 c4 -6 1 -19 -7 -27 -9 -8 -18 -20 -20 -27 -4 -10 -8 -9
-16 2 -9 13 -11 12 -11 -3 0 -10 -5 -15 -10 -12 -14 9 -50 -4 -50 -18 0 -7
-10 -17 -22 -22 -13 -6 -23 -15 -23 -22 0 -6 -3 -15 -7 -19 -5 -4 -8 -2 -8 6
0 10 -3 10 -14 0 -8 -6 -12 -18 -9 -26 3 -8 2 -14 -3 -13 -20 3 -32 -2 -38
-17 -4 -10 -2 -13 7 -7 6 4 22 6 34 5 11 -2 24 2 28 7 11 19 27 12 20 -9 -5
-16 -2 -19 24 -17 17 1 31 6 31 12 0 5 5 4 12 -3 8 -8 15 -9 25 -1 10 9 13 8
13 -2 0 -8 6 -5 14 6 8 11 12 23 10 27 -5 7 14 12 43 11 7 -1 10 4 7 9 -3 5 0
17 8 26 20 25 17 67 -4 66 -14 -1 -16 2 -7 18 9 17 7 24 -11 42 -13 11 -20 15
-16 8z m36 -94 c0 -14 -18 -17 -28 -5 -8 10 -6 13 9 13 10 0 19 -4 19 -8z"/>
<path d="M2030 1711 c0 -6 4 -13 10 -16 6 -3 7 1 4 9 -7 18 -14 21 -14 7z"/>
<path d="M2360 1241 c0 -6 4 -13 10 -16 6 -3 7 1 4 9 -7 18 -14 21 -14 7z"/>
</g>
</svg>
